# xmcd
#
# Track frame offsets:
#	150
#	13997
#	28149
#	39694
#	49629
#	63309
#	77213
#	91044
#	104050
#	117709
#	131084
#	144919
#	157055
#	171437
#	186971
#	198676
#	208691
#	221558
#	234166
#	249150
#	262129
#	275462
#	289899
#	302238
#	316434
#
# Disc length: 4432 seconds
#
# Revision: 1
# Processed by: cddbd v1.5.1PL0 Copyright (c) Steve Scherf et al.
# Submitted via: dBpowerAMP V4.0
#
DISCID=86114e19
DTITLE=Homer - The Iliad
DYEAR=1900
DGENRE=misc
TTITLE0=Book 07 g
TTITLE1=Book 07 h
TTITLE2=Book 07 i
TTITLE3=Book 07 j
TTITLE4=Book 08 a
TTITLE5=Book 08 b
TTITLE6=Book 08 c
TTITLE7=Book 08 d
TTITLE8=Book 08 e
TTITLE9=Book 08 f
TTITLE10=Book 08 g
TTITLE11=Book 08 h
TTITLE12=Book 08 i
TTITLE13=Book 08 j
TTITLE14=Book 08 k
TTITLE15=Book 08 l
TTITLE16=Book 09 a
TTITLE17=Book 09 b
TTITLE18=Book 09 c
TTITLE19=Book 09 d
TTITLE20=Book 09 e
TTITLE21=Book 09 f
TTITLE22=Book 09 g
TTITLE23=Book 09 h
TTITLE24=Book 09 i
EXTD=
EXTT0=
EXTT1=
EXTT2=
EXTT3=
EXTT4=
EXTT5=
EXTT6=
EXTT7=
EXTT8=
EXTT9=
EXTT10=
EXTT11=
EXTT12=
EXTT13=
EXTT14=
EXTT15=
EXTT16=
EXTT17=
EXTT18=
EXTT19=
EXTT20=
EXTT21=
EXTT22=
EXTT23=
EXTT24=
PLAYORDER=
